<?xml version="1.0"?>
<svg id="solid" viewBox="0 0 512 512" xmlns="http://www.w3.org/2000/svg" width="30" height="30">
    <title />
    <path
        d="M256,85.47c-105.869,0-192,86.131-192,192a190.2,190.2,0,0,0,54.048,133.524L92.46,442.262a28,28,0,0,0,43.331,35.475l26.661-32.572a192.182,192.182,0,0,0,187.1,0l26.661,32.572a28,28,0,1,0,43.333-35.473l-25.59-31.27A190.2,190.2,0,0,0,448,277.47C448,171.6,361.869,85.47,256,85.47Zm0,56c74.991,0,136,61.009,136,136a136,136,0,0,1-272,0C120,202.479,181.009,141.47,256,141.47Zm206.254,27.1a8,8,0,0,1-11.271.986L328.417,66.707a8,8,0,0,1-.987-11.27,88,88,0,1,1,134.824,113.13ZM183.583,66.707,61.017,169.553a8,8,0,0,1-11.271-.986A88,88,0,1,1,184.57,55.437,8,8,0,0,1,183.583,66.707Zm27.1,249.888L240,272.625V192a16,16,0,0,1,32,0v85.47c0,.088-.012.173-.013.26-.007.437-.024.874-.066,1.311-.018.178-.051.35-.074.527-.045.342-.089.684-.157,1.025-.045.232-.109.456-.165.684-.068.277-.13.554-.213.829s-.186.541-.283.809c-.08.22-.151.441-.241.659-.133.322-.287.633-.441.944-.077.158-.145.319-.229.476-.207.388-.436.763-.674,1.131-.047.073-.083.148-.131.22l-.028.042-.033.05-31.939,47.908a16,16,0,0,1-26.626-17.75Z"
        style="fill:#fff" />
</svg>